<?xml version="1.0" standalone="no"?>
<!DOCTYPE svg PUBLIC "-//W3C//DTD SVG 20010904//EN"
 "http://www.w3.org/TR/2001/REC-SVG-20010904/DTD/svg10.dtd">
<svg version="1.0" xmlns="http://www.w3.org/2000/svg"
 width="306.000000pt" height="120.000000pt" viewBox="0 0 306.000000 120.000000"
 preserveAspectRatio="xMidYMid meet">

<g transform="translate(0.000000,120.000000) scale(0.100000,-0.100000)"
fill="#000000" stroke="none">
<path d="M1760 992 c0 -43 -3 -82 -7 -85 -3 -4 -15 0 -25 10 -31 28 -115 28
-168 1 -105 -54 -122 -214 -31 -291 58 -48 141 -57 198 -21 28 18 33 18 33 -1
0 -11 12 -15 48 -15 l47 0 0 240 0 240 -47 0 -48 0 0 -78z m-49 -142 c10 -6
26 -25 35 -42 40 -77 -31 -164 -113 -137 -38 12 -63 52 -63 99 0 65 82 111
141 80z"/>
<path d="M2029 920 c-131 -71 -133 -253 -2 -315 71 -34 211 -19 239 26 3 6 -4
22 -18 35 -24 24 -25 24 -63 9 -25 -11 -50 -14 -73 -10 -34 6 -82 44 -82 65 0
6 48 10 135 10 l135 0 0 32 c0 47 -35 110 -76 138 -50 33 -144 39 -195 10z
m145 -71 c14 -11 26 -29 26 -40 0 -17 -8 -19 -85 -19 -95 0 -106 10 -60 55 30
31 82 33 119 4z"/>
<path d="M2320 935 c0 -3 32 -82 72 -176 l71 -170 55 3 55 3 68 160 c38 88 68
166 69 173 0 8 -15 12 -43 12 -43 0 -43 0 -67 -57 -13 -32 -37 -87 -53 -123
l-29 -65 -24 60 c-14 33 -37 88 -51 123 l-26 62 -49 0 c-26 0 -48 -2 -48 -5z"/>
<path d="M592 885 c-27 -12 -66 -38 -87 -56 -41 -37 -90 -128 -100 -190 -4
-22 -16 -47 -29 -56 -12 -10 -34 -34 -49 -54 -24 -31 -27 -45 -27 -108 0 -80
11 -110 62 -158 53 -51 94 -63 214 -63 l107 0 -25 33 c-24 30 -30 32 -107 39
-92 8 -132 27 -161 76 -40 68 -14 156 57 191 28 14 33 21 34 56 1 22 1 43 0
48 -3 16 48 103 76 129 43 41 120 71 179 70 94 0 212 -78 231 -150 4 -17 10
-21 22 -16 106 44 205 14 245 -75 15 -32 27 -43 59 -53 59 -19 100 -75 99
-132 -1 -90 -59 -135 -183 -143 -75 -6 -80 -7 -104 -39 l-26 -34 108 0 c83 0
117 5 148 19 45 20 125 101 126 128 0 10 0 47 -1 83 -2 82 -29 128 -100 168
-32 18 -61 46 -79 74 -40 64 -119 102 -206 100 -61 0 -63 0 -106 45 -67 69
-134 94 -241 92 -67 -1 -99 -7 -136 -24z"/>
<path d="M810 455 l0 -145 -62 0 -61 0 54 -57 c30 -32 73 -80 96 -108 l43 -50
55 60 c30 33 74 81 96 108 l41 47 -56 0 -56 0 0 145 0 145 -75 0 -75 0 0 -145z"/>
<path d="M1575 476 c-63 -28 -105 -94 -105 -166 0 -40 42 -113 78 -137 70 -46
188 -39 245 14 15 15 27 30 27 33 0 3 -16 14 -36 23 -34 17 -36 17 -61 -3 -36
-28 -85 -26 -122 6 -26 21 -31 33 -31 69 0 96 96 137 164 70 13 -13 18 -13 50
6 31 18 34 23 23 41 -31 51 -160 76 -232 44z"/>
<path d="M1960 479 c-65 -26 -100 -85 -100 -166 0 -99 61 -160 171 -171 125
-12 222 84 205 203 -8 53 -53 111 -103 131 -37 16 -136 17 -173 3z m158 -94
c31 -37 30 -94 -4 -134 -21 -25 -33 -31 -66 -31 -76 0 -122 80 -84 149 31 56
111 64 154 16z"/>
<path d="M2320 315 l0 -175 44 0 44 0 4 104 c3 94 5 107 27 130 17 18 35 26
58 26 33 0 33 1 33 46 l0 47 -36 -6 c-20 -3 -44 -13 -54 -22 -22 -20 -30 -19
-30 5 0 17 -7 20 -45 20 l-45 0 0 -175z"/>
<path d="M2600 255 l0 -235 50 0 50 0 0 80 0 80 41 -21 c76 -40 184 -6 224 71
8 16 15 55 15 87 0 71 -30 128 -80 154 -43 23 -138 26 -166 4 -25 -19 -48 -19
-40 0 4 12 -4 15 -44 15 l-50 0 0 -235z m239 150 c58 -29 66 -124 14 -165 -62
-48 -153 -3 -153 77 0 81 69 125 139 88z"/>
</g>
</svg>
